<svg width="512" height="342" viewBox="0 0 512 342" fill="none" xmlns="http://www.w3.org/2000/svg">
<path d="M501.333 160.333H36.417L178.209 18.541C182.376 14.374 182.376 7.62401 178.209 3.45801C174.042 -0.708986 167.292 -0.708986 163.126 3.45801L3.12598 163.458C-1.04102 167.625 -1.04102 174.375 3.12598 178.541L163.126 338.541C165.209 340.624 167.939 341.666 170.668 341.666C173.397 341.666 176.126 340.624 178.21 338.541C182.377 334.374 182.377 327.624 178.21 323.458L36.417 181.667H501.334C507.23 181.667 512.001 176.896 512.001 171C512.001 165.104 507.229 160.333 501.333 160.333Z" fill="#FFB920"/>
</svg>
