<svg width="491" height="470" viewBox="0 0 491 470" fill="none" xmlns="http://www.w3.org/2000/svg">
<path d="M480.427 22.642L301.014 152.348L271.574 173.681C255.978 185.203 234.69 185.203 219.094 173.681L189.654 152.348L10.0271 22.855C20.0181 8.88299 36.1571 0.613987 53.3341 0.667987H437.334C454.385 0.682987 470.401 8.84999 480.427 22.642Z" fill="#FFD54F"/>
<path d="M10.027 22.855L189.654 152.348L15.574 326.428C5.57798 316.407 -0.0250225 302.823 -2.24946e-05 288.668V54.002C-0.0470225 42.818 3.46398 31.91 10.027 22.855Z" fill="#FFC107"/>
<path d="M490.667 54.002V288.669C490.692 302.824 485.09 316.408 475.094 326.429L301.014 152.349L480.427 22.642C487.088 31.74 490.674 42.725 490.667 54.002Z" fill="#FFC107"/>
<path d="M320 384.668C305.835 384.668 298.667 374.001 298.667 352.668C299.016 322.861 275.136 298.416 245.329 298.067C215.522 297.718 191.077 321.598 190.728 351.405C190.379 381.212 214.259 405.657 244.066 406.006C260.041 406.193 275.278 399.293 285.675 387.164C292.758 399.302 305.957 406.545 320 406.001C362.667 406.001 362.667 365.852 362.667 352.668C362.668 287.867 310.137 235.334 245.336 235.332C180.535 235.33 128.002 287.862 128 352.664C127.999 417.465 180.53 469.998 245.331 470C275.776 470.001 305.03 458.167 326.912 437C331.148 432.876 331.238 426.1 327.115 421.864C322.991 417.628 316.215 417.538 311.979 421.661C273.818 458.468 213.044 457.37 176.237 419.209C139.43 381.048 140.528 320.274 178.689 283.467C216.85 246.66 277.624 247.758 314.431 285.919C331.715 303.839 341.361 327.773 341.334 352.669C341.334 376.583 335.958 384.668 320 384.668ZM245.334 384.668C227.661 384.668 213.334 370.341 213.334 352.668C213.334 334.995 227.661 320.668 245.334 320.668C263.007 320.668 277.334 334.995 277.334 352.668C277.334 370.341 263.007 384.668 245.334 384.668Z" fill="white"/>
<path d="M301.014 152.348L271.574 173.681C255.978 185.203 234.69 185.203 219.094 173.681L189.654 152.348L15.574 326.428C25.595 336.424 39.179 342.027 53.334 342.001H107.2C112.971 265.718 179.488 208.556 255.772 214.327C324.031 219.491 378.282 273.742 383.446 342.001H437.334C451.489 342.026 465.073 336.424 475.094 326.428L301.014 152.348Z" fill="#FFA000"/>
</svg>
