<svg width="574" height="263" viewBox="0 0 574 263" fill="none" xmlns="http://www.w3.org/2000/svg">
<path d="M480.773 75.6178C481.044 77.6117 482.503 79.2383 484.455 79.7263L506.739 85.2974C507.783 85.5582 507.794 87.0385 506.751 87.2997C500.837 88.7782 489.873 91.5193 484.442 92.8766C482.49 93.3646 481.044 94.989 480.772 96.9829L474.865 140.305C474.702 141.497 472.979 141.497 472.817 140.305L466.909 96.9837C466.637 94.9898 465.191 93.3654 463.239 92.8775C457.808 91.5204 446.844 88.7796 440.93 87.3011C439.886 87.0402 439.886 85.5627 440.93 85.3018C446.844 83.8232 457.809 81.0817 463.24 79.7237C465.192 79.2355 466.637 77.6114 466.909 75.6178L472.817 32.2948C472.979 31.103 474.702 31.1002 474.864 32.292C476.703 45.775 480.409 72.9488 480.773 75.6178Z" fill="#FFC850"/>
<path d="M530.128 30.4207C528.826 30.1084 527.854 29.0672 527.673 27.7911C526.919 22.4834 524.926 8.45572 523.82 0.665587C523.694 -0.223972 522.41 -0.22062 522.283 0.668939L518.431 27.7908C518.25 29.0667 517.286 30.1062 515.984 30.4187C512.5 31.2552 505.599 32.9117 501.57 33.8787C500.779 34.0686 500.779 35.1886 501.57 35.3785C505.598 36.3454 512.5 38.0016 515.984 38.8373C517.286 39.1495 518.25 40.1891 518.431 41.4652L522.272 68.5086C522.401 69.4107 523.703 69.4107 523.831 68.5086L527.673 41.4646C527.854 40.1885 528.818 39.149 530.119 38.8367C533.601 38.0014 540.492 36.3474 544.523 35.3802C545.316 35.1897 545.306 34.0636 544.512 33.8731L530.128 30.4207Z" fill="#FFDC64"/>
<path d="M553.319 112.408C552.277 112.155 551.5 111.309 551.355 110.272C550.784 106.193 549.327 95.7766 548.422 89.3042C548.298 88.4152 547.016 88.4306 546.891 89.3196L543.961 110.272C543.816 111.308 543.045 112.153 542.004 112.407C539.377 113.047 534.319 114.28 531.048 115.077C530.261 115.269 530.261 116.385 531.048 116.577C534.319 117.374 539.376 118.606 542.004 119.247C543.045 119.5 543.816 120.345 543.961 121.382L546.891 142.333C547.016 143.222 548.3 143.222 548.424 142.333L551.355 121.382C551.5 120.345 552.271 119.5 553.312 119.246C555.939 118.606 560.996 117.374 564.267 116.576C565.054 116.385 565.045 115.267 564.257 115.075L553.319 112.408Z" fill="#FFF082"/>
<path d="M474.865 140.305L480.07 102.137C474.426 90.6929 470.253 78.8191 467.626 70.364L466.91 75.6176C466.638 77.6112 465.192 79.2353 463.24 79.7235C457.81 81.0817 446.845 83.823 440.93 85.3016C439.887 85.5627 439.887 87.0399 440.93 87.3008C446.845 88.7794 457.809 91.5204 463.239 92.8772C465.192 93.3652 466.638 94.9896 466.91 96.9834L472.817 140.305C472.98 141.497 474.703 141.497 474.865 140.305Z" fill="#EBAF4B"/>
<path d="M518.777 25.3554L518.431 27.7911C518.25 29.0669 517.285 30.1065 515.984 30.419C512.5 31.2555 505.598 32.9117 501.57 33.8789C500.779 34.0689 500.779 35.1888 501.57 35.3788C505.598 36.3457 512.5 38.0016 515.984 38.8376C517.285 39.1498 518.25 40.1894 518.431 41.4655L522.272 68.5089C522.4 69.411 523.703 69.411 523.832 68.5089L527.269 44.3076C522.766 37.8634 520.2 30.8036 518.777 25.3554Z" fill="#FFC850"/>
<path d="M543.961 121.382L546.892 142.333C547.016 143.222 548.3 143.222 548.425 142.333L551.171 122.7C547.048 118.136 545.071 112.683 544.147 108.941L543.961 110.272C543.816 111.309 543.045 112.153 542.004 112.407C539.377 113.048 534.32 114.28 531.049 115.078C530.261 115.27 530.261 116.385 531.049 116.577C534.32 117.375 539.376 118.607 542.004 119.247C543.045 119.501 543.816 120.345 543.961 121.382Z" fill="#FFDC64"/>
<path d="M61.66 123.62L60.04 130.64C58 130.4 55.36 130.28 52.12 130.28C40.12 130.28 34.12 134.24 34.12 142.16C34.12 143.84 36.52 148.76 41.32 156.92C46.24 165.08 48.7 170.54 48.7 173.3C48.7 179.78 46.48 184.88 42.04 188.6C37.72 192.2 31.9 194 24.58 194C14.5 194 6.4 188.42 0.28 177.26L7.12 172.4C8.8 173.72 10.6 175.34 12.52 177.26C14.44 179.06 15.88 180.32 16.84 181.04C19.12 183.08 21.64 184.1 24.4 184.1C27.16 184.1 29.56 183.14 31.6 181.22C33.64 179.18 34.66 176.72 34.66 173.84C34.66 170.84 32.02 165.32 26.74 157.28C21.58 149.24 19 143.6 19 140.36C19 134.48 21.46 129.98 26.38 126.86C31.42 123.74 37.96 122.18 46 122.18C54.16 122.18 59.38 122.66 61.66 123.62ZM112.79 172.76L116.93 176C113.21 181.16 108.11 185.48 101.63 188.96C95.1498 192.32 88.8498 194 82.7298 194C76.6098 194 71.6898 192.2 67.9698 188.6C64.2498 185 62.3898 180.26 62.3898 174.38C62.3898 163.34 68.2098 152.48 79.8498 141.8C91.6098 131.12 103.49 125.78 115.49 125.78C123.41 125.78 127.37 128.9 127.37 135.14C127.37 141.62 123.17 148.16 114.77 154.76C106.49 161.36 94.7898 167.36 79.6698 172.76C80.7498 175.52 82.4298 177.68 84.7098 179.24C86.9898 180.8 89.3298 181.58 91.7298 181.58C96.8898 181.58 103.91 178.64 112.79 172.76ZM78.7698 167.36C88.4898 164 96.8298 159.8 103.79 154.76C110.75 149.72 114.23 145.1 114.23 140.9C114.23 139.34 113.63 137.96 112.43 136.76C111.23 135.56 109.85 134.96 108.29 134.96C102.65 134.96 96.5298 138.5 89.9298 145.58C83.4498 152.54 79.7298 159.8 78.7698 167.36ZM186.025 168.62C186.265 170.78 186.385 172.52 186.385 173.84C180.025 175.4 174.265 177.2 169.105 179.24C164.665 200.6 158.905 216.74 151.825 227.66C144.745 238.58 135.745 244.04 124.825 244.04C119.425 244.04 115.225 242.42 112.225 239.18C109.105 235.94 107.545 231.5 107.545 225.86C107.545 215.66 111.985 206.36 120.865 197.96C129.745 189.68 142.645 182.54 159.565 176.54C164.965 156.02 171.445 135.86 179.005 116.06C181.285 110.06 182.545 106.46 182.785 105.26L191.785 108.14C188.425 115.58 184.285 126.56 179.365 141.08C174.565 155.6 171.685 166.16 170.725 172.76L186.025 168.62ZM158.845 183.56C143.845 191 134.365 196.88 130.405 201.2C125.245 206.84 122.665 212.72 122.665 218.84C122.665 221.48 123.445 223.58 125.005 225.14C126.565 226.7 128.665 227.48 131.305 227.48C136.705 227.48 141.865 223.34 146.785 215.06C151.825 206.9 155.845 196.4 158.845 183.56ZM205.285 83.3C205.285 85.82 204.625 88.22 203.305 90.5C202.105 92.78 200.065 93.92 197.185 93.92C194.425 93.92 192.025 93.14 189.985 91.58C188.065 90.02 187.105 87.86 187.105 85.1C187.105 82.22 188.065 79.7 189.985 77.54C191.905 75.26 194.065 74.12 196.465 74.12C198.985 74.12 201.085 75.02 202.765 76.82C204.445 78.5 205.285 80.66 205.285 83.3ZM280.762 175.82L284.902 178.88C283.222 182.48 280.102 185.9 275.542 189.14C271.102 192.38 267.022 194 263.302 194C256.222 194 252.682 190.28 252.682 182.84C252.682 179.36 253.582 175.22 255.382 170.42L248.722 177.26C242.242 183.86 236.602 188.3 231.802 190.58C227.122 192.86 222.502 194 217.942 194C213.382 194 209.902 192.74 207.502 190.22C205.222 187.58 204.082 183.98 204.082 179.42C204.082 171.02 207.322 162.74 213.802 154.58C220.282 146.3 228.562 139.58 238.642 134.42C248.722 129.26 258.802 126.62 268.882 126.5L269.242 132.44L261.682 134.06C250.762 136.46 241.102 141.26 232.702 148.46C224.422 155.66 220.282 162.86 220.282 170.06C220.282 177.14 223.162 180.68 228.922 180.68C234.322 180.68 240.982 176.9 248.902 169.34C256.822 161.78 263.422 152.9 268.702 142.7L276.262 147.2C268.822 162.2 265.102 171.74 265.102 175.82C265.102 177.5 265.642 178.94 266.722 180.14C267.922 181.22 269.062 181.76 270.142 181.76C271.342 181.76 272.122 181.7 272.482 181.58C272.842 181.46 273.202 181.34 273.562 181.22C273.922 180.98 274.342 180.68 274.822 180.32C275.422 179.96 275.902 179.6 276.262 179.24C276.742 178.88 277.462 178.34 278.422 177.62C279.382 176.9 280.162 176.3 280.762 175.82Z" fill="white"/>
<path d="M346.777 129.56L352.897 134.42C336.937 155.42 326.137 172.94 320.497 186.98C318.577 191.66 315.817 194 312.217 194C309.937 194 307.897 192.8 306.097 190.4C304.417 188 303.277 185.84 302.677 183.92C302.197 181.88 301.357 177.68 300.157 171.32C298.957 164.96 297.637 158.36 296.197 151.52C294.757 144.56 293.557 139.4 292.597 136.04C291.757 132.56 291.157 130.28 290.797 129.2C290.557 128.12 290.077 127.22 289.357 126.5C288.637 125.66 288.217 125.12 288.097 124.88L299.797 125.96C303.277 134.48 306.037 143.72 308.077 153.68C308.557 155.72 309.397 159.86 310.597 166.1C311.797 172.22 312.757 177.02 313.477 180.5C320.077 167.78 325.837 157.46 330.757 149.54C335.797 141.5 341.137 134.84 346.777 129.56ZM393.016 117.68C386.296 117.68 382.936 114.98 382.936 109.58C382.936 106.58 383.776 104.06 385.456 102.02C387.136 99.98 389.296 98.96 391.936 98.96C394.576 98.96 396.736 99.74 398.416 101.3C400.096 102.86 400.936 104.9 400.936 107.42C400.936 109.94 400.216 112.28 398.776 114.44C397.336 116.6 395.416 117.68 393.016 117.68ZM390.676 170.78L394.276 173.84C391.396 179.36 387.556 184.1 382.756 188.06C378.076 191.9 373.816 193.82 369.976 193.82C363.256 193.82 359.896 189.14 359.896 179.78C359.896 168.14 364.696 152.96 374.296 134.24C376.456 130.16 377.716 127.76 378.076 127.04L385.816 131.72C383.296 136.28 380.176 143.54 376.456 153.5C372.856 163.46 371.056 169.88 371.056 172.76C371.056 175.52 371.656 177.5 372.856 178.7C374.056 179.9 375.496 180.5 377.176 180.5C380.416 180.5 384.916 177.26 390.676 170.78ZM431.28 160.88C440.4 147.2 448.32 137.9 455.04 132.98C461.76 127.94 467.64 125.42 472.68 125.42C477.72 125.42 481.62 126.98 484.38 130.1C487.14 133.1 488.52 136.94 488.52 141.62C488.52 154.58 483.84 166.58 474.48 177.62C465.24 188.54 454.8 194 443.16 194C438 194 433.92 193.1 430.92 191.3L435.24 183.56C441.48 184.4 445.38 184.82 446.94 184.82C453.42 184.82 459.48 181.04 465.12 173.48C470.76 165.92 473.58 158.18 473.58 150.26C473.58 147.26 472.68 144.8 470.88 142.88C469.2 140.84 466.98 139.82 464.22 139.82C457.62 139.82 450.12 145.64 441.72 157.28C433.44 168.92 425.64 183.32 418.32 200.48C411.12 217.76 404.82 236.12 399.42 255.56L388.62 251.78C388.86 251.06 391.14 244.82 395.46 233.06C399.66 221.42 403.8 209.84 407.88 198.32C419.16 166.64 424.8 149.3 424.8 146.3C424.8 138.62 423.24 131.66 420.12 125.42L429.12 120.92C432.84 126.08 434.7 131.54 434.7 137.3C434.7 142.94 433.56 150.8 431.28 160.88Z" fill="#FFC850"/>
</svg>
