<svg width="68" height="110" viewBox="0 0 68 110" fill="none" xmlns="http://www.w3.org/2000/svg">
<path d="M40.6255 44.2183C40.8973 46.2122 42.3558 47.8388 44.3078 48.3267L66.592 53.8978C67.6357 54.1587 67.6475 55.639 66.6037 55.9001C60.6896 57.3787 49.7256 60.1197 44.2952 61.4771C42.3429 61.965 40.8973 63.5894 40.6253 65.5833L34.7176 108.906C34.555 110.098 32.8323 110.098 32.6698 108.906L26.7624 65.5842C26.4903 63.5903 25.0444 61.9659 23.0919 61.4779C17.6612 60.1208 6.6969 57.3801 0.782798 55.9015C-0.260933 55.6407 -0.260933 54.1632 0.782798 53.9023C6.69746 52.4237 17.6624 49.6821 23.0927 48.3242C25.0447 47.836 26.4904 46.2119 26.7621 44.2183L32.6698 0.895215C32.8323 -0.296542 34.5548 -0.299334 34.7173 0.892424C36.5562 14.3755 40.2616 41.5493 40.6255 44.2183Z" fill="#FFC850"/>
</svg>
