<svg width="119" height="119" viewBox="0 0 119 119" fill="none" xmlns="http://www.w3.org/2000/svg">
<path d="M115.947 96.3093L22.6878 3.05046C18.6205 -1.01682 12.0264 -1.01682 7.96551 3.05046L3.05046 7.95788C-1.01682 12.0264 -1.01682 18.6205 3.05046 22.6814L96.3093 115.94C100.378 120.008 106.972 120.008 111.033 115.94L115.94 111.033C120.015 106.972 120.015 100.377 115.947 96.3093V96.3093Z" fill="#FD6B6B"/>
<path d="M96.3093 3.05134L3.05046 96.3102C-1.01682 100.377 -1.01682 106.973 3.05046 111.034L7.95788 115.941C12.0264 120.008 18.6205 120.008 22.6814 115.941L115.947 22.6887C120.015 18.6214 120.015 12.0273 115.947 7.96639L111.039 3.05896C106.972 -1.01594 100.378 -1.01594 96.3093 3.05134V3.05134Z" fill="#FD6B6B"/>
</svg>
