<svg width="510" height="512" viewBox="0 0 510 512" fill="none" xmlns="http://www.w3.org/2000/svg">
<path d="M210.259 245.592C247.505 208.45 260.558 205.719 260.558 189.922C260.558 178.343 251.187 168.97 239.606 168.97C226.415 168.97 222.059 179.369 210.259 189.638L195.728 175.107C187.539 166.919 174.287 166.919 166.098 175.107C157.989 183.216 157.929 196.375 165.92 204.558L210.259 245.592Z" fill="#CDCDCD"/>
<path d="M210.259 420C326.053 420 420.259 325.794 420.259 210C420.259 94.206 326.053 0 210.259 0C29.748 0 -66.1841 214.661 52.8769 349.051L0.561947 420H210.259ZM144.883 153.894C162.654 136.127 190.386 134.248 210.259 148.264C230.133 134.247 257.865 136.124 275.634 153.894C295.5 173.76 295.5 206.083 275.634 225.95C202.726 293.442 210.89 285.886 210.259 286.47L144.883 225.95C125.019 206.083 125.019 173.76 144.883 153.894V153.894Z" fill="#CDCDCD"/>
<path d="M462.493 447.894C528.569 372.14 522.19 257.631 449.369 189.448C461.398 330.698 349.53 450 210.259 450H182.878C217.821 488.985 268.044 512 321.759 512H509.765L462.493 447.894Z" fill="#CDCDCD"/>
</svg>
