<svg width="512" height="512" viewBox="0 0 512 512" fill="none" xmlns="http://www.w3.org/2000/svg">
<path d="M406.015 501.777C406.015 501.777 442.523 484.647 446.942 453.421C451.361 422.194 426.659 405.162 426.659 405.162C426.659 405.162 476.648 389.16 471.558 319.862C466.469 250.564 420.15 239.36 420.15 239.36C420.15 239.36 439.06 147.117 347.34 185.079C347.34 185.079 370.431 60.819 282.215 101.329L258.408 323.585L406.015 501.777Z" fill="#96B4EB"/>
<path d="M424.883 404.881C424.883 404.881 478.778 389.353 474.38 316.791C473.589 303.741 463.538 285.125 460.377 275.667C464.109 379.258 388.382 415.199 322.282 349.501C318.735 345.975 302.368 380.487 297.655 379.083L401.243 505.38C401.243 505.38 440.688 488.349 445.91 455.813C451.132 423.278 424.883 404.881 424.883 404.881V404.881Z" fill="#8286EA"/>
<path d="M403.637 501.677C388.547 461.041 364.728 429.282 337.128 408.487L337.118 408.725C348.3 392.88 357.02 374.844 365.141 346.093L382.353 289.188C388.135 268.717 387.29 247.943 381.099 229.153C387.389 225.561 393.415 220.023 398.726 212.371C414.899 189.066 408.813 148.487 401.556 143.451C394.299 138.414 354.156 146.91 337.982 170.215C337.343 171.136 336.748 172.055 336.172 172.973C328.576 168.438 320.27 164.81 311.351 162.291L250.287 145.044C245.727 143.756 241.248 142.866 236.858 142.316C237.818 136.528 237.787 130.047 236.553 122.962C231.737 95.306 199.237 70.965 190.625 72.465C182.013 73.965 159.654 107.858 164.47 135.514C166.063 144.664 169.203 152.19 173.402 158.053C159.204 167.208 148.308 178.542 141.827 187.543C126.186 209.266 112.461 241.034 112.461 241.034C82.2739 256.748 66.0109 285.322 68.0069 314.734C69.6539 339.002 80.6279 359.554 98.3099 376C113.852 390.455 142.401 402.126 158.949 405.284L161.489 406.508C151.805 438.659 145.607 480.108 145.652 501.675" fill="white"/>
<path d="M337.23 408.565C348.358 392.759 357.048 374.748 365.141 346.094L382.353 289.189C388.135 268.718 387.289 247.944 381.099 229.154C387.389 225.562 393.415 220.024 398.726 212.372C414.9 189.067 408.813 148.488 401.556 143.452C398.208 141.129 387.859 141.692 376.096 145.254C380.827 153.19 380.071 189.576 364.153 210.067C358.659 217.139 352.826 222.154 347.015 225.294C349.893 243.568 347.968 263.49 340.442 282.807L318.551 336.452C311.528 354.479 304.881 367.965 297.828 379.28C292.055 388.541 292.436 400.353 298.938 409.117C307.829 421.1 315.506 435.289 321.553 451.448C327.886 468.371 314.817 486.24 296.776 485.238L146.943 481.901C145.853 491.466 145.64 495.033 145.654 501.677H403.638C388.566 461.09 364.786 429.361 337.23 408.565V408.565Z" fill="#E1BDFC"/>
<path d="M293.351 276.932L270.667 292.288C285.856 320.729 331.047 359.101 332.127 400.792C332.977 417.286 358.222 392.414 364.754 354.507C352.521 318.366 306.813 291.943 293.351 276.932V276.932Z" fill="#C1E5EF"/>
<path d="M130.8 259.588L147.747 279.388C118.914 297.598 99.2399 325.545 84.0099 364.37L67.6079 317.813C91.4309 288.008 113.028 269.111 130.8 259.588V259.588Z" fill="#C1E5EF"/>
<path d="M297.979 188.766C298.076 188.318 298.153 187.862 298.188 187.389C302.603 170.095 301.758 153.75 293.235 138.79C298.568 119.553 297.868 103.155 288.339 90.747C288.438 67.775 285.58 42.397 280.654 15.335C280.239 11.265 274.472 10.844 273.471 14.811C265.774 35.607 259.884 55.297 259.069 71.883C250.238 82.978 246.422 95.657 249.326 110.492C241.435 122.02 237.36 135.208 239.142 150.847C229.001 162.417 230.041 176.017 230.011 182.306C231.174 203.781 293.688 208.645 297.979 188.766V188.766Z" fill="#F6E06E"/>
<path d="M297.979 188.766C298.076 188.318 298.153 187.862 298.188 187.389C301.323 175.107 301.787 163.307 298.751 152.139C298.402 155.442 297.797 158.787 296.936 162.176C296.909 162.581 296.844 162.97 296.763 163.353C293.141 180.325 238.21 175.707 237.032 157.329C237.028 156.291 236.988 155.017 236.988 153.571C229.164 164.483 230.039 176.505 230.012 182.306C231.174 203.781 293.688 208.645 297.979 188.766Z" fill="#DDA86A"/>
<path d="M144.03 163.484C160.03 159.607 173.881 149.982 183.811 136.851C186.631 133.121 190.058 129.73 194.081 126.822C213.292 112.934 240.192 115.304 256.663 132.353C276.307 152.687 274.256 185.006 252.93 202.768C234.569 218.06 211.67 219.957 192.823 213.759C181.843 210.148 158.289 195.816 140.538 184.48C131.944 178.993 134.121 165.885 144.03 163.484Z" fill="#96B4EB"/>
<path d="M256.662 132.353C240.192 115.305 213.291 112.935 194.08 126.822C190.058 129.73 186.631 133.121 183.811 136.851C173.881 149.982 160.03 159.607 144.03 163.484C134.121 165.885 131.944 178.992 140.537 184.48C158.288 195.816 181.842 210.148 192.822 213.76C211.67 219.958 234.568 218.061 252.929 202.769C274.255 185.007 276.306 152.688 256.662 132.353ZM245.923 176.739C235.08 190.106 218.979 194.49 204.562 192.548C196.163 191.417 177.157 184.279 162.753 178.517C155.78 175.728 155.371 166.064 162.101 163.036C172.968 158.147 181.435 149.431 186.569 138.725C188.027 135.684 189.971 132.805 192.412 130.193C204.074 117.719 223.68 115.857 238.024 125.875C255.134 137.823 258.517 161.214 245.923 176.739V176.739Z" fill="#8286EA"/>
<path d="M201.543 164.903C199.069 164.903 196.588 164.01 194.624 162.202C190.471 158.379 190.203 151.914 194.026 147.761C208.099 132.471 224.057 132.236 225.849 132.263C225.849 132.263 235.703 131.546 236.374 141.615C237.045 151.683 225.755 152.702 225.755 152.702C225.4 152.71 216.973 153.012 209.065 161.604C207.05 163.794 204.301 164.903 201.543 164.903Z" fill="white"/>
<path d="M172.894 339.522C167.033 339.538 162.8 330.437 164.535 321.482C168.787 299.547 180.684 283.753 194.738 283.715C208.792 283.677 220.774 299.407 225.144 321.319C226.928 330.265 222.744 339.388 216.883 339.404L172.894 339.522Z" fill="#D789B9"/>
<path d="M212.984 293.574C207.795 287.345 201.508 283.696 194.738 283.715C180.684 283.753 168.786 299.547 164.535 321.482C162.799 330.437 167.033 339.538 172.894 339.522L186.607 339.485C186.627 339.35 186.651 339.215 186.68 339.082C183.488 337.608 181.455 332.148 182.502 326.749C185.503 311.268 193.899 300.121 203.818 300.094C207.783 300.083 211.512 301.855 214.76 304.968C214.262 301.115 213.731 297.292 212.984 293.574V293.574Z" fill="#C668B9"/>
<path d="M83.268 161.434C80.023 158.789 77.001 155.442 74.451 151.499C65.205 137.205 65.656 120.477 75.458 114.137C85.26 107.797 100.701 114.245 109.947 128.54C112.258 132.114 113.964 135.839 115.069 139.517" fill="#C1E5EF"/>
<path d="M64.973 210.034C62.39 209.929 59.658 209.395 56.938 208.391C47.077 204.753 41.105 196.323 43.6 189.561C46.094 182.799 56.11 180.266 65.972 183.904C68.437 184.814 70.66 186.022 72.567 187.43" fill="#C1E5EF"/>
<path d="M446.834 2.50101L455.23 26.107C455.589 27.118 456.301 27.919 457.199 28.323L478.172 37.772C481.135 39.107 481.135 43.828 478.172 45.163L457.199 54.612C456.301 55.017 455.589 55.817 455.23 56.828L446.834 80.434C445.648 83.769 441.454 83.769 440.267 80.434L431.872 56.828C431.513 55.817 430.801 55.016 429.903 54.612L408.93 45.163C405.967 43.828 405.967 39.107 408.93 37.772L429.903 28.323C430.801 27.918 431.513 27.118 431.872 26.107L440.267 2.50101C441.454 -0.833994 445.648 -0.833994 446.834 2.50101V2.50101Z" fill="#FBF2AA"/>
<path d="M30.34 14.492L36.567 32.003C36.834 32.753 37.362 33.347 38.028 33.647L53.586 40.656C55.784 41.646 55.784 45.148 53.586 46.138L38.028 53.147C37.362 53.447 36.834 54.041 36.567 54.791L30.34 72.302C29.46 74.776 26.349 74.776 25.469 72.302L19.242 54.791C18.975 54.041 18.448 53.447 17.781 53.147L2.22296 46.138C0.0249629 45.148 0.0249629 41.646 2.22296 40.656L17.781 33.647C18.447 33.347 18.975 32.753 19.242 32.003L25.469 14.492C26.349 12.018 29.46 12.018 30.34 14.492V14.492Z" fill="#FBF2AA"/>
<path d="M147.237 59.5355C154.082 58.8545 159.079 52.7535 158.398 45.9086C157.717 39.0638 151.616 34.067 144.771 34.7481C137.926 35.4291 132.93 41.5301 133.611 48.3749C134.292 55.2198 140.393 60.2165 147.237 59.5355Z" fill="#F7E16E"/>
<path d="M511.425 123.279C511.425 128.622 507.094 132.953 501.751 132.953C496.408 132.953 492.077 128.622 492.077 123.279C492.077 117.936 496.408 113.605 501.751 113.605C507.094 113.605 511.425 117.936 511.425 123.279Z" fill="#F7E16E"/>
<path d="M177.666 345.641C172.792 345.641 168.272 343.116 164.935 338.527C159.531 331.096 158.029 319.594 161.198 309.905C167.802 289.704 180.335 277.621 194.722 277.583H194.791C209.149 277.583 221.717 289.592 228.419 309.724C231.639 319.395 230.199 330.905 224.836 338.365C221.515 342.984 216.994 345.535 212.106 345.548L177.705 345.64C177.692 345.641 177.679 345.641 177.666 345.641ZM194.788 289.847C194.777 289.847 194.765 289.847 194.754 289.847C186.052 289.87 177.66 299.016 172.854 313.716C170.655 320.44 172.195 327.658 174.853 331.313C175.305 331.934 176.481 333.376 177.666 333.376H177.67L212.071 333.284C213.257 333.281 214.428 331.83 214.877 331.206C217.515 327.537 219.017 320.31 216.782 313.598C211.904 298.943 203.479 289.847 194.788 289.847Z" fill="#3C122C"/>
<path d="M155.174 265.768C152.755 265.768 150.462 264.327 149.493 261.948C148.215 258.812 149.722 255.233 152.858 253.956C157.193 252.178 161.888 249.229 163.253 247.497C162.315 245.667 158.674 242.123 155.168 239.706C152.382 237.785 151.676 233.968 153.593 231.181C155.511 228.393 159.322 227.682 162.111 229.597C166.98 232.936 178.008 241.675 175.263 250.67C172.87 258.513 161.05 263.862 157.485 265.315C156.728 265.622 155.945 265.768 155.174 265.768ZM163.453 247.999H163.463H163.453Z" fill="#3C122C"/>
<path d="M272.553 279.041C271.436 279.041 270.307 278.736 269.292 278.096C265.596 275.765 253.701 267.387 255.807 257.415C257.826 247.863 271.427 242.978 274.134 242.096C277.351 241.046 280.815 242.806 281.864 246.025C282.914 249.245 281.155 252.706 277.935 253.756C273.135 255.341 268.5 258.358 267.849 259.84C268.226 261.513 272.092 265.343 275.843 267.728C278.697 269.542 279.549 273.328 277.739 276.186C276.571 278.03 274.584 279.041 272.553 279.041V279.041Z" fill="#3C122C"/>
<path d="M458.476 395.485C470.694 382.441 484.652 358.602 481.752 319.113C477.523 261.552 446.885 240.01 431.396 232.736C432.681 219.756 432.856 195.236 419.025 179.568C419.21 176.233 419.215 173.237 419.141 170.758C418.945 164.161 417.517 142.09 407.382 135.056C397.246 128.023 376.07 134.405 369.821 136.53C367.044 137.474 363.627 138.777 359.906 140.487C358.428 121.889 353.147 102.383 339.091 91.429C328.518 83.189 314.917 80.986 298.509 84.798C298.171 63.921 295.63 40.616 290.756 13.777C289.854 7.31502 284.578 2.34302 278.023 1.86502C271.506 1.38802 265.644 5.46102 263.752 11.619C254.868 35.675 250.276 53.322 249.073 68.151C242.113 77.806 238.482 88.263 238.179 99.376C232.935 90.589 226.544 83.661 222.065 79.387C217.33 74.87 200.939 60.289 188.869 62.397C176.791 64.5 166.298 83.756 163.369 89.607C158.584 99.169 151.056 118.074 154.398 137.267C155.27 142.274 156.586 146.944 158.287 151.287C153.327 154.083 148.049 156.198 142.583 157.522C135.573 159.22 130.481 164.694 129.295 171.806C128.555 176.244 129.46 180.572 131.719 184.143C119.187 202.267 108.355 225.251 104.529 233.708C73.39 251.31 55.563 282.313 57.81 315.428C59.582 341.536 70.866 364.433 91.349 383.485C106.714 397.776 131.706 408.573 148.919 413.384C140.371 445.412 135.392 482.195 135.433 501.699C135.445 507.336 140.018 511.898 145.653 511.898H145.675C151.32 511.886 155.886 507.301 155.874 501.656C155.832 481.612 161.581 441.645 171.276 409.457C173.579 402.334 167.382 396.605 160.865 395.246C146.699 392.543 119.498 381.75 105.271 368.517C102.134 365.6 99.268 362.576 96.667 359.451C113.995 307.246 150.671 284.319 151.108 284.051C153.999 282.296 154.924 278.532 153.174 275.637C151.421 272.739 147.652 271.811 144.754 273.561C143.156 274.527 107.767 296.405 88.076 347.065C82.319 336.907 79.006 325.871 78.204 314.043C78.171 313.553 78.155 313.066 78.134 312.577C97.781 280.121 135.189 268.874 135.576 268.762C138.825 267.819 140.696 264.422 139.757 261.172C138.817 257.918 135.413 256.041 132.164 256.983C130.742 257.394 104.217 265.289 82.368 287.396C88.397 272.067 100.518 258.775 117.181 250.101C119.264 249.017 120.911 247.246 121.843 245.091C121.97 244.797 134.114 216.87 148.06 196.466C168.55 209.193 182.951 216.969 190.907 219.585C198.28 222.01 205.813 223.198 213.246 223.198C229.081 223.197 244.459 217.804 256.854 207.48C257.184 207.205 257.497 206.914 257.82 206.632C259.53 206.875 261.232 207.071 262.903 207.203C265.014 207.371 267.184 207.461 269.376 207.461C284.627 207.46 300.828 203.11 303.875 190.454C303.893 190.393 303.906 190.332 303.921 190.271C303.937 190.2 303.959 190.132 303.974 190.06C303.975 190.056 303.975 190.052 303.976 190.048C303.988 189.994 303.995 189.945 304.006 189.891C304.013 189.856 304.02 189.821 304.026 189.786C304.12 189.317 304.196 188.873 304.246 188.446C305.692 182.668 306.547 177.059 306.815 171.632L308.572 172.128C316.435 174.349 323.957 177.586 330.932 181.749C335.701 184.599 341.877 183.113 344.829 178.404C345.412 177.475 345.903 176.726 346.378 176.043C358.187 159.026 386.563 151.507 395.464 152.227C399.254 160.307 402.138 189.527 390.329 206.545C386.081 212.666 381.269 217.286 376.029 220.279C371.809 222.689 369.87 227.737 371.39 232.353C377.156 249.851 377.553 268.511 372.542 286.322L358.538 332.623C335.577 295.762 299.016 274.606 297.258 273.604C294.316 271.927 290.572 272.953 288.893 275.894C287.216 278.836 288.241 282.581 291.184 284.258C291.622 284.508 333.404 308.678 353.656 348.956C348.633 365.665 343.181 378.953 336.443 390.756C323.549 344.635 276.22 289.016 273.974 286.396C271.77 283.825 267.9 283.527 265.328 285.731C262.757 287.934 262.458 291.805 264.662 294.377C265.246 295.059 322.511 362.362 327.108 406.522C327.009 407.025 326.938 407.538 326.917 408.06L326.907 408.299C326.736 412.388 329.015 416.137 332.618 417.902C359.265 438.535 380.484 468.686 394.055 505.235C395.585 509.354 399.488 511.901 403.637 511.901C403.901 511.901 404.167 511.887 404.432 511.866C404.956 511.949 405.486 512.001 406.021 512.001C407.474 512.001 408.952 511.689 410.356 511.03C412.051 510.235 451.926 491.135 457.061 454.853C460.112 433.293 451.698 417.437 443.888 407.78C448.372 404.84 453.466 400.835 458.476 395.485V395.485ZM269.202 73.128C269.227 72.926 269.25 72.724 269.263 72.522C269.266 72.476 269.274 72.432 269.277 72.385C269.721 63.351 271.944 53.115 274.749 43.279C276.477 56.232 277.531 68.217 277.933 79.416L269.187 73.277C269.194 73.228 269.196 73.177 269.202 73.128V73.128ZM263.138 84.016L279.176 95.273C279.196 95.312 279.22 95.349 279.239 95.388C279.321 95.547 279.408 95.702 279.497 95.857C279.575 95.991 279.652 96.124 279.737 96.255C279.839 96.414 279.948 96.567 280.058 96.72C280.118 96.803 280.169 96.89 280.231 96.971C285.393 103.692 286.079 112.331 282.383 126.063L259.526 110.129C259.507 109.598 259.458 109.065 259.353 108.528C257.596 99.546 258.804 91.614 263.138 84.016ZM192.459 83.004C198.912 85.427 213.761 97.158 221.703 111.687C210.777 111.767 199.827 115.101 190.488 121.853C186.063 125.052 182.17 128.854 178.919 133.153C177.778 134.662 176.581 136.115 175.336 137.511C175.038 136.294 174.763 135.054 174.538 133.763C171.043 113.689 185.699 88.742 192.459 83.004V83.004ZM194.737 207.934C186.653 205.275 168.576 195.11 143.837 179.312C141.021 177.514 141.256 174.66 141.394 173.827C141.533 172.997 142.236 170.228 145.474 169.444C162.354 165.354 177.706 155.093 188.702 140.55C191.218 137.223 194.236 134.277 197.673 131.792C204.985 126.507 213.572 123.922 222.124 123.922C233.171 123.922 244.159 128.237 252.252 136.614C260.492 145.144 264.68 156.322 264.042 168.09C263.413 179.698 257.932 190.62 249.004 198.056C234.061 210.502 213.774 214.194 194.737 207.934V207.934ZM267.715 195.174C270.578 190.722 272.774 185.862 274.242 180.764L289.552 190.631C285.721 193.411 277.769 195.425 267.715 195.174ZM293.739 178.738L276.324 167.514C276.796 152.761 271.418 138.802 261.073 128.092C258.215 125.133 255.076 122.57 251.734 120.402C251.997 120.336 252.264 120.275 252.518 120.192L288.873 145.537C289.269 145.814 289.691 146.019 290.122 146.19C294.532 155.935 295.725 166.674 293.739 178.738V178.738ZM333.189 159.744C327.083 156.755 320.702 154.314 314.128 152.458L304.43 149.719C303.315 145.804 301.827 142.017 299.962 138.364C300.143 137.972 300.307 137.57 300.44 137.148C303.531 127.336 306.248 115.766 304.669 104.352C313.995 102.447 321.317 103.498 326.518 107.544C336.96 115.671 339.798 135.313 339.796 153.166C337.481 155.165 335.253 157.35 333.189 159.744ZM423.543 395.428C419.832 396.616 417.091 399.792 416.521 403.646C415.951 407.501 417.594 411.325 420.802 413.537C421.599 414.103 440.266 427.663 436.824 451.989C434.367 469.348 418.834 481.922 409.249 488.141C395.365 455.037 375.432 427.08 350.918 406.415C360.842 390.497 368.233 372.73 374.951 348.963L392.136 292.147C392.155 292.087 392.172 292.027 392.189 291.966C397.629 272.709 397.883 252.629 392.99 233.433C398.176 229.371 402.91 224.272 407.125 218.198C408.569 216.117 409.842 213.964 410.97 211.769C412.284 221.782 411.177 232.156 410.141 237.307C409.035 242.7 412.309 247.977 417.66 249.271C419.262 249.69 456.934 260.232 461.37 320.61C465.766 380.528 425.204 394.869 423.543 395.428Z" fill="#3C122C"/>
<path d="M83.2649 167.566C81.9029 167.566 80.5319 167.115 79.3939 166.187C75.5389 163.045 72.1439 159.223 69.3019 154.83C58.0469 137.429 59.2879 117.293 72.1279 108.989C78.5249 104.853 86.9609 104.471 95.2749 107.943C102.92 111.135 109.96 117.268 115.097 125.21C117.672 129.191 119.638 133.411 120.943 137.754C121.917 140.997 120.077 144.417 116.833 145.391C113.59 146.367 110.17 144.525 109.196 141.281C108.225 138.046 106.745 134.88 104.798 131.871C101.047 126.072 95.8529 121.475 90.5479 119.26C87.8889 118.149 82.8239 116.676 78.7889 119.287C71.9599 123.704 72.3309 136.931 79.6009 148.169C81.7459 151.486 84.2839 154.35 87.1439 156.682C89.7689 158.821 90.1619 162.684 88.0219 165.309C86.8089 166.795 85.0439 167.566 83.2649 167.566V167.566Z" fill="#3C122C"/>
<path d="M64.978 216.166C64.894 216.166 64.809 216.164 64.724 216.161C61.411 216.026 58.078 215.347 54.817 214.144C48.898 211.961 43.861 208.249 40.633 203.692C36.964 198.512 35.949 192.587 37.848 187.438C39.747 182.289 44.366 178.443 50.521 176.887C55.935 175.519 62.176 175.968 68.095 178.151C71.046 179.239 73.776 180.701 76.208 182.495C78.934 184.506 79.513 188.345 77.503 191.07C75.493 193.795 71.653 194.375 68.928 192.365C67.426 191.257 65.718 190.346 63.851 189.658C60.284 188.342 56.521 188.021 53.528 188.778C52.5 189.038 50.034 189.841 49.355 191.683C48.675 193.525 50.028 195.738 50.642 196.604C52.427 199.123 55.496 201.323 59.063 202.638C61.121 203.398 63.194 203.824 65.226 203.907C68.609 204.045 71.241 206.9 71.103 210.284C70.966 213.583 68.249 216.166 64.978 216.166V216.166Z" fill="#3C122C"/>
</svg>
