<svg width="299" height="299" viewBox="0 0 299 299" fill="none" xmlns="http://www.w3.org/2000/svg">
<path d="M20.8 170.667H16C7.168 170.667 0 177.835 0 186.667V261.333C0 267.797 3.904 273.643 9.87733 276.117C11.8613 276.928 13.9307 277.333 16 277.333C20.16 277.333 24.256 275.712 27.3067 272.64L44.5227 255.424C26.816 237.952 13.3547 216 6.16533 191.104C3.73333 182.613 8.61867 173.739 17.1093 171.285C18.3253 170.923 19.5627 170.731 20.8 170.667V170.667ZM90.6667 170.667H22.3573C28.9707 170.987 34.9867 175.509 36.9067 182.229C42.56 201.835 53.1627 219.093 67.1147 232.832L101.973 197.973C106.56 193.408 107.904 186.517 105.451 180.544C102.976 174.571 97.152 170.667 90.6667 170.667V170.667Z" fill="#8F8F8F"/>
<path d="M282.667 128H208C201.515 128 195.691 124.096 193.216 118.123C190.763 112.149 192.107 105.259 196.693 100.693L271.36 26.0266C275.925 21.44 282.816 20.0746 288.789 22.5493C294.763 25.024 298.667 30.8693 298.667 37.3333V112C298.667 120.832 291.499 128 282.667 128Z" fill="#8F8F8F"/>
<path d="M19.6479 134.613L15.9572 134.187C7.35987 132.16 2.02654 123.541 4.03187 114.944C19.9892 47.2747 79.7439 0 149.333 0C215.36 0 274.219 44.224 292.501 107.563C294.933 116.053 290.048 124.928 281.557 127.381C272.981 129.792 264.192 124.928 261.739 116.437C247.424 66.7093 201.195 32 149.333 32C94.6772 32 47.7225 69.12 35.1999 122.283C33.4505 129.643 26.9012 134.613 19.6479 134.613V134.613Z" fill="#8F8F8F"/>
<path d="M149.333 298.667C83.3065 298.667 24.4479 254.443 6.16521 191.104C3.73321 182.613 8.61855 173.739 17.1092 171.285C25.5785 168.811 34.4745 173.76 36.9065 182.229C51.2425 231.957 97.4719 266.667 149.333 266.667C204.011 266.667 250.944 229.547 263.467 176.384C265.515 167.787 274.24 162.517 282.709 164.48C291.307 166.507 296.64 175.125 294.635 183.723C278.677 251.392 218.923 298.667 149.333 298.667V298.667Z" fill="#8F8F8F"/>
<path d="M149.333 0C79.7439 0 19.9892 47.2747 4.03187 114.944C2.02654 123.541 7.35987 132.16 15.9572 134.187L19.6479 134.613C26.9012 134.613 33.4505 129.643 35.1999 122.283C47.7225 69.12 94.6559 32 149.333 32V0Z" fill="#8F8F8F"/>
<path d="M21.5679 170.645C21.3119 170.645 21.0559 170.645 20.7999 170.667C19.5625 170.731 18.3252 170.923 17.1092 171.285C8.61855 173.739 3.73321 182.613 6.16521 191.104C13.3545 216 26.8159 237.973 44.5225 255.424C71.8505 282.389 109.269 298.667 149.333 298.667V266.667C117.931 266.667 88.5759 253.931 67.1359 232.832C53.1839 219.093 42.5599 201.835 36.9065 182.229C34.9865 175.509 28.9705 170.987 22.3572 170.667C22.0799 170.645 21.8239 170.645 21.5679 170.645Z" fill="#8F8F8F"/>
</svg>
