<svg width="34" height="56" viewBox="0 0 34 56" fill="none" xmlns="http://www.w3.org/2000/svg">
<path d="M1.74505 23.915C2.02805 23.633 2.33505 23.395 2.65805 23.188L24.266 1.58099C26.374 -0.526012 29.794 -0.527012 31.903 1.58199C34.012 3.68999 34.012 7.10899 31.903 9.21899L13.294 27.828L31.999 46.534C34.108 48.642 34.108 52.06 31.999 54.171C30.944 55.227 29.561 55.753 28.181 55.753C26.801 55.753 25.417 55.227 24.363 54.171L2.65805 32.464C2.33505 32.257 2.02605 32.019 1.74505 31.737C0.667047 30.659 0.147048 29.239 0.173048 27.826C0.147048 26.413 0.667047 24.994 1.74505 23.915Z" fill="#CDCDCD"/>
</svg>
