<svg width="290" height="493" viewBox="0 0 290 493" fill="none" xmlns="http://www.w3.org/2000/svg">
<path d="M7.84812 265.2L226.796 484.144C231.86 489.212 238.62 492.004 245.828 492.004C253.036 492.004 259.796 489.212 264.86 484.144L280.984 468.024C291.476 457.52 291.476 440.448 280.984 429.96L97.1281 246.104L281.188 62.0439C286.252 56.9759 289.048 50.2199 289.048 43.0159C289.048 35.8039 286.252 29.0479 281.188 23.9759L265.064 7.8599C259.996 2.7919 253.24 -8.84223e-05 246.032 -8.77922e-05C238.824 -8.7162e-05 232.064 2.7919 227 7.8599L7.84812 227.004C2.77212 232.088 -0.0158695 238.876 0.00013109 246.092C-0.0158683 253.336 2.77212 260.12 7.84812 265.2Z" fill="#C9C9C9"/>
</svg>
