<svg width="513" height="513" viewBox="0 0 513 513" fill="none" xmlns="http://www.w3.org/2000/svg">
<g clip-path="url(#clip0)">
<path d="M500.122 10.249C493.034 3.33503 483.38 -0.364967 473.661 0.028033C423.689 2.21103 366.758 48.346 344.161 68.514L373.353 81.146C413.78 58.576 437.117 54.028 448.744 66.276C467.003 85.512 436.906 136.05 427.243 151.075L425.087 153.952C423.479 156.053 420.611 159.789 416.702 164.812C381.801 209.76 268.267 351.536 173.037 421.52C172.58 421.858 172.124 422.159 171.676 422.497C168.634 424.717 165.602 426.9 162.606 428.964C159.153 431.339 155.737 433.604 152.349 435.76C152.276 435.806 152.212 435.851 152.148 435.897L152.13 435.906L150.404 437.039C149.829 437.395 149.29 437.715 148.723 438.071L146.933 439.204L146.906 439.186C100.113 468.003 74.776 475.046 62.646 462.587C50.471 450.083 58.664 421.448 87.006 377.441C85.508 375.094 84.019 372.755 82.631 370.353L79.982 365.813L80.393 365.082L70.181 344.686C50.324 366.854 3.375 424.37 1.156 474.79C0.736 484.518 4.453 494.172 11.377 501.251C18.346 508.394 27.626 512.102 37.335 512.02C127.45 510.248 229.256 425.312 294.819 359.512C297.468 356.845 300.108 354.196 302.756 351.474C304.245 349.949 305.67 348.469 307.113 346.971C311.899 341.984 316.704 336.942 321.526 331.754L321.763 331.517C327.663 325.617 333.418 319.743 339.072 313.898C340.497 312.427 341.84 311.003 343.237 309.55C347.612 304.992 351.923 300.443 356.143 295.922C357.33 294.652 358.481 293.392 359.65 292.131C364.409 286.979 369.104 281.855 373.661 276.75C374.045 276.321 374.428 275.891 374.812 275.462C401.72 245.284 425.058 216.028 444.513 188.014L451.354 178.159C503.983 99.516 510.56 52.787 510.889 36.228C511.073 26.434 507.255 17.209 500.122 10.249Z" fill="white"/>
<path d="M449.027 213.159C421.342 251.055 386.99 290.98 346.764 332.137C342.316 336.722 338.288 340.805 334.881 344.212C334.835 344.239 334.817 344.258 334.799 344.285C333.959 345.189 333.118 346.048 332.287 346.943C328.35 351.163 324.432 355.319 320.559 359.347C319.655 360.288 318.75 361.201 317.855 362.133C313.79 366.335 309.762 370.454 305.78 374.455C305.269 374.966 304.757 375.469 304.255 375.98C273.739 406.515 245.387 431.295 219.182 451.298C233.942 454.869 249.05 456.687 264.303 456.687C370.073 456.687 456.115 370.646 456.115 264.875C456.115 247.283 453.74 229.956 449.027 213.159Z" fill="white"/>
<path d="M363.497 100.757L360.401 99.369L342.69 89.815C318.302 78.799 291.723 73.073 264.266 73.073C158.514 73.063 72.455 159.113 72.455 264.875C72.455 287.774 76.62 310.161 84.576 331.562C84.832 332.256 85.069 332.959 85.298 333.672C85.462 334.174 85.618 334.677 85.81 335.17L100.707 364.892C101.812 366.591 102.954 368.253 104.096 369.925C104.096 369.925 109.01 377.159 108.992 377.186C114.966 385.416 121.569 393.198 128.739 400.423C133.288 404.999 144.431 419.504 151.19 414.736C195.188 383.644 234.098 345.958 271.072 306.947C303.835 272.393 335.082 236.406 365.325 199.633C380.405 181.301 395.266 162.787 409.862 143.752C410.218 143.295 410.465 142.957 410.748 142.601L411.333 141.834C397.703 125.546 381.646 111.763 363.497 100.757ZM112.516 295.619C108.15 295.619 104.295 292.486 103.528 288.038C101.126 274.1 99.893 260.161 99.874 246.625C99.865 241.583 103.948 237.491 108.999 237.482H109.008C114.05 237.482 118.133 241.565 118.142 246.607C118.16 259.12 119.302 272.017 121.531 284.942C122.39 289.911 119.056 294.642 114.087 295.492C113.548 295.583 113.028 295.619 112.516 295.619ZM145.435 365.119C141.498 368.362 135.634 367.768 132.483 363.758C127.295 357.154 122.874 350.678 118.91 341.608C116.882 336.986 118.992 331.597 123.614 329.579C128.236 327.551 133.625 329.661 135.643 334.283C138.794 341.49 142.256 346.623 146.759 352.35C149.837 356.286 149.289 361.94 145.435 365.119ZM264.267 118.732C264.258 118.732 264.249 118.732 264.24 118.732C225.704 118.732 186.264 135.136 161.301 161.543C159.511 163.443 157.09 164.402 154.661 164.402C152.405 164.402 150.149 163.58 148.386 161.908C144.723 158.446 144.559 152.665 148.021 148.993C176.318 119.061 220.845 100.465 264.231 100.465C264.24 100.465 264.249 100.465 264.258 100.465C269.327 100.465 273.401 104.557 273.401 109.599C273.4 114.64 269.308 118.732 264.267 118.732Z" fill="white"/>
<rect x="110.296" y="151.98" width="169.379" height="111.375" transform="rotate(-24.1918 110.296 151.98)" fill="white"/>
<rect x="83.503" y="308.31" width="173.811" height="111.375" transform="rotate(-41.7552 83.503 308.31)" fill="white"/>
<rect x="72" y="272.812" width="169.379" height="111.375" transform="rotate(-50.561 72 272.812)" fill="white"/>
</g>
<defs>
<clipPath id="clip0">
<rect width="512.021" height="512.021" fill="white"/>
</clipPath>
</defs>
</svg>
