<svg width="189" height="189" viewBox="0 0 189 189" fill="none" xmlns="http://www.w3.org/2000/svg">
<path d="M182.699 153.01C181.443 146.646 177.095 141.329 171.107 138.835L153.224 131.117C151.729 130.49 150.002 130.857 148.892 132.039C148.602 132.235 148.337 132.468 148.105 132.731C122.872 162.347 78.4077 165.9 48.7919 140.666C45.94 138.237 43.2866 135.583 40.8569 132.731C40.6499 132.437 40.4036 132.172 40.1246 131.944C38.9854 130.776 37.2442 130.432 35.7463 131.078L17.9325 138.772C11.9237 141.253 7.55088 146.571 6.27773 152.946L0.0803035 184.273C-0.354539 186.404 1.02012 188.483 3.15078 188.918C3.41028 188.971 3.67421 188.998 3.93925 188.998H185.062C187.237 188.998 189 187.236 189.001 185.061C189.001 184.796 188.974 184.532 188.921 184.273L182.699 153.01Z" fill="#CFD8DC"/>
<path d="M154.893 134.165C152.7 127.314 146.866 122.262 139.773 121.069C138.466 120.904 137.164 121.414 136.316 122.423C116.711 145.498 82.1117 148.31 59.037 128.705C56.7583 126.769 54.6417 124.65 52.7085 122.368C51.7122 121.469 50.4125 120.979 49.0703 120.998C42.0792 122.379 36.3672 127.406 34.1081 134.165C33.7275 135.447 34.0239 136.835 34.8955 137.85C62.9521 170.78 112.391 174.731 145.321 146.674C148.492 143.972 151.443 141.022 154.145 137.85C155.003 136.828 155.284 135.441 154.893 134.165Z" fill="#607D8B"/>
<path d="M94.5005 0C59.7234 0.0391284 31.5403 28.2219 31.5015 62.9994V86.6241C31.4878 101.613 36.8562 116.107 46.6291 127.471C46.7671 127.627 46.917 127.772 47.0779 127.904C69.9825 154.095 109.782 156.759 135.973 133.855C149.602 121.936 157.445 104.73 157.5 86.6241V62.9994C157.461 28.2219 129.278 0.0391284 94.5005 0Z" fill="#CFD8DC"/>
<path d="M94.5002 39.3747C63.5913 39.3747 39.376 51.4864 39.376 66.937V90.5617C39.376 106.012 63.5913 118.124 94.5002 118.124C125.409 118.124 149.624 106.012 149.624 90.5617V66.937C149.625 51.4864 125.409 39.3747 94.5002 39.3747Z" fill="#455A64"/>
<path d="M59.0635 94.4989C56.8889 94.4989 55.1259 92.7359 55.1259 90.5613V72.3389C55.089 67.9657 57.495 63.9373 61.3628 61.8968C71.7215 57.0618 83.0754 54.7414 94.5006 55.1242C115.448 55.1242 129.15 61.5265 132.836 65.5586C134.221 67.2352 133.984 69.7169 132.308 71.1019C130.752 72.3865 128.478 72.2883 127.04 70.8742C117.297 64.8794 105.906 62.1227 94.5006 62.9994C84.3471 62.6387 74.2494 64.6505 65.0092 68.8742C63.7434 69.5615 62.9682 70.8993 63.0011 72.3393V90.5617C63.0011 92.7363 61.2381 94.4989 59.0635 94.4989Z" fill="#37474F"/>
<path d="M98.4383 110.249C91.5949 110.249 86.626 106.941 86.626 102.374C86.626 97.8067 91.5949 94.4992 98.4383 94.4992C105.282 94.4992 110.251 97.8067 110.251 102.374C110.251 106.941 105.282 110.249 98.4383 110.249Z" fill="#37474F"/>
<path d="M106.313 106.311C104.138 106.311 102.375 104.548 102.375 102.374C102.375 100.199 104.138 98.4361 106.313 98.4361C114.676 98.4361 140.175 86.8995 141.75 82.4027C141.753 80.3019 143.459 78.6017 145.559 78.6046C145.602 78.6046 145.645 78.6054 145.688 78.6068C147.892 78.667 149.643 80.4806 149.625 82.6862C149.625 93.7115 114.976 106.311 106.313 106.311Z" fill="#37474F"/>
</svg>
