<svg width="16" height="20" viewBox="0 0 16 20" fill="none" xmlns="http://www.w3.org/2000/svg">
<path d="M14.1089 0.00925985V0H2.58507C1.17867 0 0.0386124 1.14006 0.0386124 2.54646V4.84985C0.0386124 5.10553 0.245917 5.31284 0.501605 5.31284H4.40231V18.3831C4.39294 18.7874 4.522 19.1827 4.76808 19.5036C5.11694 19.9518 5.72121 20.1135 6.24734 19.8994C6.709 19.6967 7.09184 19.3488 7.33768 18.9086L10.1781 14.3782L13.0255 18.9156C13.2714 19.3557 13.6542 19.7036 14.1159 19.9064C14.642 20.1204 15.2463 19.9587 15.5951 19.5105C15.8412 19.1896 15.9703 18.7943 15.9609 18.3901V1.86123C15.9609 0.838421 15.1318 0.00925985 14.1089 0.00925985ZM4.4 4.35907H0.962282V2.53025C0.971079 1.64791 1.6842 0.934782 2.56655 0.925985H2.79805L2.79573 0.94219C3.67808 0.950986 4.3912 1.66411 4.4 2.54646V4.35907ZM14.852 18.9225C14.8064 18.9825 14.7434 19.027 14.6715 19.0498C14.594 19.067 14.5131 19.0597 14.44 19.029C14.1712 18.8886 13.954 18.6665 13.8196 18.3947L10.5786 13.2416C10.5395 13.1764 10.485 13.1219 10.4198 13.0828C10.2005 12.9512 9.91615 13.0224 9.7846 13.2416L6.52745 18.3947C6.38751 18.661 6.16718 18.8765 5.89778 19.0105C5.82463 19.0411 5.74378 19.0484 5.66628 19.0313C5.5944 19.0085 5.53132 18.964 5.48572 18.904C5.3746 18.7485 5.31915 18.5601 5.3283 18.3692V2.53257C5.32905 1.94665 5.12614 1.37873 4.75419 0.925985H14.1089L14.0974 0.944505C14.598 0.95197 15.002 1.35599 15.0095 1.8566V18.3877C15.0186 18.5786 14.9632 18.7671 14.852 18.9225Z" fill="black"/>
</svg>
