<svg width="20" height="18" viewBox="0 0 20 18" fill="none" xmlns="http://www.w3.org/2000/svg">
<path d="M16.5 11C15.3758 11 14.3846 11.5423 13.7437 12.3688L6.97319 9.76474C6.98003 9.67582 7 9.59065 7 9.50004C7 9.33181 6.97338 9.17074 6.95031 9.00884L13.8883 5.80633C14.5301 6.53228 15.4573 7.00005 16.5 7.00005C18.4297 7.00005 20 5.42973 20 3.50002C20 1.57032 18.4297 0 16.5 0C14.5703 0 13 1.57027 13 3.49998C13 3.66821 13.0266 3.82928 13.0497 3.99118L6.11177 7.19369C5.46991 6.46774 4.54272 5.99997 3.50002 5.99997C1.57032 5.99997 0 7.57028 0 9.49999C0 11.4297 1.57032 13 3.50002 13C4.62423 13 5.6155 12.4577 6.25633 11.6312L13.0269 14.2353C13.02 14.3242 13.0001 14.4094 13.0001 14.5C13.0001 16.4297 14.5704 18 16.5001 18C18.4298 18 20.0001 16.4297 20.0001 14.5C20.0001 12.5703 18.4298 11 16.5 11Z" fill="black"/>
</svg>
