<svg width="56" height="56" viewBox="0 0 56 56" fill="none" xmlns="http://www.w3.org/2000/svg">
<path d="M28 56C43.464 56 56 43.464 56 28C56 12.536 43.464 0 28 0C12.536 0 0 12.536 0 28C0 43.464 12.536 56 28 56Z" fill="#55ACEE"/>
<path d="M45.1545 20.1228C43.9546 20.6548 42.6639 21.0147 41.3102 21.1754C42.6923 20.3474 43.753 19.0372 44.2536 17.4734C42.9603 18.2406 41.5274 18.7971 40.0035 19.0971C38.7827 17.7968 37.0432 16.9843 35.1171 16.9843C31.4215 16.9843 28.4243 19.9815 28.4243 23.677C28.4243 24.2016 28.4837 24.7122 28.5985 25.2024C23.0362 24.9234 18.1043 22.259 14.8031 18.2086C14.2271 19.1969 13.8967 20.3474 13.8967 21.5737C13.8967 23.8952 15.0791 25.9446 16.874 27.1445C15.7774 27.11 14.7447 26.8091 13.8428 26.3064C13.8423 26.3349 13.8423 26.3633 13.8423 26.3913C13.8423 29.6341 16.1503 32.3389 19.2114 32.9533C18.6504 33.107 18.0579 33.1884 17.4485 33.1884C17.0162 33.1884 16.5975 33.147 16.1892 33.0691C17.0407 35.7275 19.5119 37.6626 22.4413 37.717C20.1503 39.5123 17.2648 40.582 14.1283 40.582C13.5892 40.582 13.0552 40.5505 12.5326 40.4881C15.4929 42.3878 19.0118 43.4954 22.7911 43.4954C35.1016 43.4954 41.8338 33.2972 41.8338 24.4522C41.8338 24.1622 41.8273 23.8732 41.8143 23.5867C43.1231 22.6433 44.2576 21.4649 45.1545 20.1228Z" fill="#F1F2F2"/>
</svg>
