<svg width="56" height="56" viewBox="0 0 56 56" fill="none" xmlns="http://www.w3.org/2000/svg">
<path d="M55.0413 10.0164C54.5316 5.2406 50.7598 1.46802 45.9836 0.95874C34.0062 -0.31958 21.9938 -0.31958 10.0168 0.95874C5.2406 1.46844 1.46844 5.2406 0.95874 10.0164C-0.31958 21.9933 -0.31958 34.0062 0.95874 45.9832C1.46844 50.7594 5.2406 54.5316 10.0164 55.0413C21.9933 56.3196 34.0062 56.3196 45.9836 55.0413C50.7598 54.5316 54.5316 50.7594 55.0413 45.9832C56.3196 34.0062 56.3196 21.9938 55.0413 10.0164V10.0164Z" fill="url(#paint0_radial)"/>
<path d="M51.9954 12.042C51.5434 7.80411 48.1964 4.45663 43.9581 4.00418C33.3299 2.87027 22.6701 2.87027 12.0419 4.00418C7.80408 4.45663 4.4566 7.80411 4.00415 12.042C2.87024 22.6701 2.87024 33.3299 4.00415 43.9577C4.4566 48.196 7.80408 51.5434 12.0419 51.9955C22.6701 53.1298 33.3299 53.1298 43.9576 51.9955C48.1959 51.5434 51.5434 48.196 51.9954 43.9577C53.1298 33.3299 53.1298 22.6701 51.9954 12.042V12.042Z" fill="url(#paint1_linear)"/>
<path d="M0.839111 44.8224C0.877564 45.2095 0.917297 45.5966 0.95874 45.9836C1.46844 50.7594 5.2406 54.5316 10.0168 55.0413C21.9938 56.3196 34.0067 56.3196 45.9836 55.0413C50.7598 54.5316 54.5316 50.7594 55.0413 45.9836C55.0827 45.5966 55.1224 45.2095 55.1613 44.8224H0.839111Z" fill="url(#paint2_linear)"/>
<path d="M55.0413 45.9832C55.7283 39.5476 56.0453 33.1017 55.994 26.6567L43.1937 13.8564C41.5945 12.0308 39.2588 10.8913 36.5142 10.7926C30.8698 10.5893 25.2075 10.5995 19.5623 10.7935C14.8737 10.955 11.595 14.1064 10.7542 18.7381C10.606 19.5559 10.5171 20.3843 10.4005 21.2081V34.7868C10.465 35.2269 10.5598 35.6648 10.5893 36.1074C10.7773 38.9247 11.9351 41.3378 13.7889 42.9703L26.8148 55.9957C33.2073 56.0406 39.6002 55.7227 45.9836 55.0412C50.7598 54.5315 54.5316 50.7594 55.0413 45.9832V45.9832Z" fill="url(#paint3_linear)"/>
<path d="M55.0413 45.9837C54.532 50.759 50.759 54.532 45.9836 55.0413C39.601 55.7224 33.2068 56.0406 26.8152 55.9958L13.809 42.9896C15.3168 44.3093 17.2821 45.113 19.5627 45.1989C25.2067 45.4108 30.8702 45.4052 36.5142 45.2018C41.6189 45.0173 45.3129 41.2391 45.4722 36.1344C45.6423 30.7144 45.6423 25.2802 45.4722 19.8602C45.3996 17.5052 44.5729 15.433 43.2023 13.8651L55.9944 26.6572C56.0449 33.1014 55.7278 39.5481 55.0413 45.9837Z" fill="url(#paint4_linear)"/>
<path d="M34.6078 21.9361C32.968 20.1506 30.6152 19.0304 28 19.0304C23.0465 19.0304 19.0304 23.0465 19.0304 28C19.0304 30.6152 20.1506 32.968 21.9361 34.6078L42.6887 55.3604C43.7872 55.2647 44.8856 55.1583 45.9832 55.0413C50.7594 54.5316 54.5316 50.7594 55.0413 45.9832C55.1583 44.8856 55.2647 43.7872 55.3604 42.6887L34.6078 21.9361Z" fill="url(#paint5_linear)"/>
<path d="M55.8915 34.0323L39.1896 17.3308C38.7999 16.8194 38.186 16.4874 37.4934 16.4874C36.3151 16.4874 35.3593 17.4427 35.3593 18.6215C35.3593 19.3141 35.6913 19.928 36.2027 20.3177L55.5928 39.7083C55.7244 37.8168 55.824 35.9246 55.8915 34.0323V34.0323Z" fill="url(#paint6_linear)"/>
<path d="M10.4005 21.2081C10.5171 20.3843 10.606 19.5559 10.7542 18.7381C11.5946 14.1064 14.8737 10.955 19.5623 10.7935C25.2075 10.5995 30.8698 10.5893 36.5142 10.7926C41.6172 10.9764 45.3129 14.7549 45.4722 19.8597C45.6419 25.2801 45.6419 30.7138 45.4722 36.1343C45.3129 41.2391 41.6185 45.0172 36.5146 45.2013C30.8702 45.4051 25.2067 45.4103 19.5627 45.1983C14.4589 45.0065 10.9307 41.2194 10.5893 36.107C10.5598 35.6648 10.465 35.2264 10.4005 34.7864C10.4005 30.2601 10.4005 25.7339 10.4005 21.2081V21.2081ZM28.0047 42.176C30.5878 42.176 33.1735 42.2533 35.7532 42.1581C39.798 42.0081 42.2858 39.5942 42.3803 35.5533C42.4973 30.5182 42.4973 25.4762 42.3803 20.4407C42.2858 16.4007 39.7963 13.9303 35.7532 13.8445C30.6216 13.7359 25.4844 13.7368 20.3527 13.8445C16.3405 13.9286 13.8453 16.349 13.7364 20.3446C13.598 25.4433 13.598 30.5511 13.7364 35.6498C13.8453 39.645 16.3405 42.0094 20.3532 42.1581C22.9004 42.2529 25.454 42.176 28.0047 42.176V42.176Z" fill="url(#paint7_linear)"/>
<path d="M10.4005 21.2081C10.5171 20.3843 10.606 19.5559 10.7542 18.7381C11.5946 14.1064 14.8737 10.955 19.5623 10.7935C25.2075 10.5995 30.8698 10.5893 36.5142 10.7926C41.6172 10.9764 45.3129 14.7549 45.4722 19.8597C45.6419 25.2801 45.6419 30.7138 45.4722 36.1343C45.3129 41.2391 41.6185 45.0172 36.5146 45.2013C30.8702 45.4051 25.2067 45.4103 19.5627 45.1983C14.4589 45.0065 10.9307 41.2194 10.5893 36.107C10.5598 35.6648 10.465 35.2264 10.4005 34.7864C10.4005 30.2601 10.4005 25.7339 10.4005 21.2081V21.2081ZM28.0047 42.176C30.5878 42.176 33.1735 42.2533 35.7532 42.1581C39.798 42.0081 42.2858 39.5942 42.3803 35.5533C42.4973 30.5182 42.4973 25.4762 42.3803 20.4407C42.2858 16.4007 39.7963 13.9303 35.7532 13.8445C30.6216 13.7359 25.4844 13.7368 20.3527 13.8445C16.3405 13.9286 13.8453 16.349 13.7364 20.3446C13.598 25.4433 13.598 30.5511 13.7364 35.6498C13.8453 39.645 16.3405 42.0094 20.3532 42.1581C22.9004 42.2529 25.454 42.176 28.0047 42.176V42.176Z" fill="white"/>
<path d="M28 19.0308C23.0465 19.0308 19.0304 23.0465 19.0304 28C19.0304 32.9539 23.0465 36.9696 28 36.9696C32.9539 36.9696 36.9696 32.9539 36.9696 28C36.9696 23.0465 32.9539 19.0308 28 19.0308ZM28 33.8815C24.7516 33.8815 22.1185 31.2484 22.1185 28C22.1185 24.7516 24.7516 22.1185 28 22.1185C31.2484 22.1185 33.8815 24.7516 33.8815 28C33.8815 31.2484 31.2484 33.8815 28 33.8815Z" fill="white"/>
<path d="M39.6271 18.6215C39.6271 19.7999 38.6718 20.7552 37.4934 20.7552C36.3151 20.7552 35.3593 19.7999 35.3593 18.6215C35.3593 17.4427 36.3151 16.4874 37.4934 16.4874C38.6718 16.4874 39.6271 17.4427 39.6271 18.6215Z" fill="white"/>
<defs>
<radialGradient id="paint0_radial" cx="0" cy="0" r="1" gradientUnits="userSpaceOnUse" gradientTransform="translate(11.4797 48.9396) scale(61.7581)">
<stop stop-color="#FAE100"/>
<stop offset="0.0544" stop-color="#FADC04"/>
<stop offset="0.1167" stop-color="#FBCE0E"/>
<stop offset="0.1829" stop-color="#FCB720"/>
<stop offset="0.2514" stop-color="#FE9838"/>
<stop offset="0.3054" stop-color="#FF7950"/>
<stop offset="0.4922" stop-color="#FF1C74"/>
<stop offset="1" stop-color="#6C1CD1"/>
</radialGradient>
<linearGradient id="paint1_linear" x1="21.4783" y1="24.3316" x2="-73.3924" y2="-29.0332" gradientUnits="userSpaceOnUse">
<stop stop-color="#A1B5D8" stop-opacity="0"/>
<stop offset="0.3094" stop-color="#90A2BD" stop-opacity="0.309804"/>
<stop offset="0.7554" stop-color="#7C8B9C" stop-opacity="0.756863"/>
<stop offset="1" stop-color="#748290"/>
</linearGradient>
<linearGradient id="paint2_linear" x1="28" y1="49.4338" x2="28" y2="58.1628" gradientUnits="userSpaceOnUse">
<stop stop-color="#FAE100" stop-opacity="0"/>
<stop offset="0.3068" stop-color="#FCA800" stop-opacity="0.305882"/>
<stop offset="0.6275" stop-color="#FE7300" stop-opacity="0.627451"/>
<stop offset="0.8685" stop-color="#FF5200" stop-opacity="0.866667"/>
<stop offset="1" stop-color="#FF4500"/>
</linearGradient>
<linearGradient id="paint3_linear" x1="24.8142" y1="24.7349" x2="10.9551" y2="10.8758" gradientUnits="userSpaceOnUse">
<stop stop-color="#833AB4" stop-opacity="0"/>
<stop offset="1" stop-color="#833AB4"/>
</linearGradient>
<linearGradient id="paint4_linear" x1="38.3796" y1="51.219" x2="31.4623" y2="18.6089" gradientUnits="userSpaceOnUse">
<stop stop-color="#833AB4" stop-opacity="0"/>
<stop offset="1" stop-color="#833AB4"/>
</linearGradient>
<linearGradient id="paint5_linear" x1="41.0118" y1="41.0118" x2="13.2279" y2="13.2279" gradientUnits="userSpaceOnUse">
<stop stop-color="#833AB4" stop-opacity="0"/>
<stop offset="1" stop-color="#833AB4"/>
</linearGradient>
<linearGradient id="paint6_linear" x1="43.0726" y1="24.2007" x2="33.885" y2="15.0131" gradientUnits="userSpaceOnUse">
<stop stop-color="#833AB4" stop-opacity="0"/>
<stop offset="1" stop-color="#833AB4"/>
</linearGradient>
<linearGradient id="paint7_linear" x1="39.1189" y1="16.9585" x2="16.4656" y2="39.6118" gradientUnits="userSpaceOnUse">
<stop stop-color="#833AB4"/>
<stop offset="0.0922" stop-color="#9C3495"/>
<stop offset="0.2927" stop-color="#DC2546"/>
<stop offset="0.392" stop-color="#FD1D1D"/>
<stop offset="0.5589" stop-color="#FC6831"/>
<stop offset="0.6887" stop-color="#FC9B40"/>
<stop offset="0.7521" stop-color="#FCAF45"/>
<stop offset="0.7806" stop-color="#FDB750"/>
<stop offset="0.8656" stop-color="#FECB6A"/>
<stop offset="0.9415" stop-color="#FFD87A"/>
<stop offset="1" stop-color="#FFDC80"/>
</linearGradient>
</defs>
</svg>
