<svg width="1052" height="982" viewBox="0 0 1052 982" fill="none" xmlns="http://www.w3.org/2000/svg">
<path d="M714.698 0H86.3077C38.7141 0 0 38.7141 0 86.3077V546.63C0 594.217 38.7141 632.931 86.3077 632.931H285.458L351.409 764.84C362.898 787.818 380.785 801 400.5 801C420.215 801 438.102 787.818 449.591 764.84L515.548 632.937H714.698C762.286 632.937 801 594.217 801 546.63V86.3077C801 38.7141 762.286 0 714.698 0Z" fill="#A0CAEC"/>
<path d="M549.874 807.223L545.728 798.931H536.458H337.308C297.998 798.931 266 766.932 266 727.63V267.308C266 227.998 297.998 196 337.308 196H965.698C1005 196 1037 227.998 1037 267.308V727.63C1037 766.934 1005 798.937 965.698 798.937H766.548H757.278L753.132 807.229L687.175 939.132L687.174 939.132C677.316 958.85 663.748 967 651.5 967C639.252 967 625.684 958.85 615.826 939.132L549.874 807.223Z" fill="#A0CAEC" stroke="white" stroke-width="30"/>
</svg>
