<svg width="191" height="113" viewBox="0 0 191 113" fill="none" xmlns="http://www.w3.org/2000/svg">
<path d="M187.947 9.52149L181.691 3.22154C179.722 1.25407 177.102 0.170174 174.302 0.170174C171.504 0.170174 168.881 1.25407 166.912 3.22154L95.5427 74.594L24.091 3.14234C22.1251 1.17487 19.5023 0.0925293 16.7041 0.0925293C13.9058 0.0925293 11.2815 1.17487 9.31404 3.14234L3.05602 9.40347C-1.01867 13.4751 -1.01867 20.1073 3.05602 24.1789L88.1278 109.557C90.0937 111.523 92.7134 112.908 95.5365 112.908H95.5691C98.3689 112.908 100.989 111.521 102.954 109.557L187.947 24.4103C189.916 22.4444 190.997 19.7455 191 16.9473C191 14.1474 189.916 11.4859 187.947 9.52149Z" fill="#B3B3B3"/>
</svg>
