<svg width="502" height="512" viewBox="0 0 502 512" fill="none" xmlns="http://www.w3.org/2000/svg">
<path d="M234.009 0C104.938 0 0.304932 104.633 0.304932 233.705C0.304932 362.777 104.938 467.41 234.01 467.41C363.082 467.41 467.715 362.777 467.715 233.705C467.715 104.633 363.081 0 234.009 0V0ZM234.009 288.195C203.963 288.195 179.52 263.751 179.52 233.705C179.52 203.659 203.964 179.215 234.009 179.215C264.055 179.215 288.499 203.659 288.499 233.705C288.499 263.751 264.055 288.195 234.009 288.195V288.195Z" fill="#596C76"/>
<path d="M234.009 117.551C169.962 117.551 117.856 169.657 117.856 233.705C117.856 297.753 169.962 349.859 234.009 349.859C264.867 349.859 292.949 337.761 313.771 318.062V274.877C313.771 271.709 315.932 268.95 319.007 268.191L346.836 261.321C349.004 252.466 350.162 243.219 350.162 233.706C350.163 169.657 298.057 117.551 234.009 117.551V117.551ZM234.009 288.195C203.963 288.195 179.52 263.751 179.52 233.705C179.52 203.659 203.964 179.215 234.009 179.215C264.055 179.215 288.499 203.659 288.499 233.705C288.499 263.751 264.055 288.195 234.009 288.195V288.195Z" fill="#384949"/>
<path d="M234.009 0C227.324 0 220.709 0.297 214.167 0.847C333.949 10.92 428.029 111.318 428.029 233.705C428.029 356.092 333.949 456.49 214.167 466.563C220.71 467.113 227.325 467.41 234.009 467.41C363.08 467.41 467.714 362.777 467.714 233.705C467.714 104.633 363.081 0 234.009 0V0Z" fill="#465A61"/>
<path d="M458.764 465.824C483.335 454.352 497.173 432.029 489.672 415.963C482.172 399.898 456.172 396.174 431.601 407.646C407.03 419.118 393.192 441.442 400.692 457.507C408.193 473.572 434.192 477.296 458.764 465.824Z" fill="#E87708"/>
<path d="M491.695 234.353C491.695 229.881 487.499 226.595 483.157 227.667L319.007 268.191C315.932 268.95 313.771 271.709 313.771 274.877V342.69H313.773V440.649C304.002 439.958 292.742 442.037 281.761 447.157C257.182 458.619 243.331 480.938 250.826 497.009C258.32 513.08 284.321 516.817 308.9 505.355C328.996 495.984 341.912 479.357 341.863 464.819H341.871C341.871 462.015 341.871 383.221 341.871 335.753L491.696 298.766V234.353H491.695Z" fill="#FD9024"/>
<path d="M483.158 227.666L463.599 232.494V265.846V400.7C463.596 400.7 463.593 400.699 463.591 400.699V423.722H463.547C464.302 438.521 451.243 455.779 430.62 465.395C426.128 467.49 421.59 469.071 417.125 470.168C428.606 473.667 443.911 472.299 458.717 465.395C478.91 455.979 491.85 439.236 491.674 424.648H491.696C491.696 415.313 491.696 241.865 491.696 234.353C491.695 229.88 487.5 226.595 483.158 227.666V227.666Z" fill="#E87708"/>
</svg>
