<svg width="77" height="93" viewBox="0 0 77 93" fill="none" xmlns="http://www.w3.org/2000/svg">
<path d="M69.0156 11.625H53.0312V8.71875C53.0312 3.90346 49.1278 0 44.3125 0H32.6875C27.8722 0 23.9688 3.90346 23.9688 8.71875V11.625H7.98438C3.97175 11.625 0.71875 14.878 0.71875 18.8906V24.7031C0.71875 26.3083 2.01984 27.6094 3.625 27.6094H73.375C74.9802 27.6094 76.2812 26.3083 76.2812 24.7031V18.8906C76.2812 14.878 73.0282 11.625 69.0156 11.625ZM29.7812 8.71875C29.7812 7.11668 31.0854 5.8125 32.6875 5.8125H44.3125C45.9146 5.8125 47.2188 7.11668 47.2188 8.71875V11.625H29.7812V8.71875Z" fill="#B3B3B3"/>
<path d="M6.23409 33.4219C5.71551 33.4219 5.30228 33.8553 5.32698 34.3733L7.72464 84.6954C7.94624 89.3527 11.7716 93 16.4325 93H60.5675C65.2284 93 69.0538 89.3527 69.2754 84.6954L71.673 34.3733C71.6977 33.8553 71.2845 33.4219 70.7659 33.4219H6.23409ZM50.125 40.6875C50.125 39.0818 51.4256 37.7812 53.0313 37.7812C54.637 37.7812 55.9375 39.0818 55.9375 40.6875V78.4688C55.9375 80.0745 54.637 81.375 53.0313 81.375C51.4256 81.375 50.125 80.0745 50.125 78.4688V40.6875ZM35.5938 40.6875C35.5938 39.0818 36.8943 37.7812 38.5 37.7812C40.1057 37.7812 41.4063 39.0818 41.4063 40.6875V78.4688C41.4063 80.0745 40.1057 81.375 38.5 81.375C36.8943 81.375 35.5938 80.0745 35.5938 78.4688V40.6875ZM21.0625 40.6875C21.0625 39.0818 22.3631 37.7812 23.9688 37.7812C25.5745 37.7812 26.875 39.0818 26.875 40.6875V78.4688C26.875 80.0745 25.5745 81.375 23.9688 81.375C22.3631 81.375 21.0625 80.0745 21.0625 78.4688V40.6875Z" fill="#B3B3B3"/>
</svg>
