<svg width="449" height="491" viewBox="0 0 449 491" fill="none" xmlns="http://www.w3.org/2000/svg">
<path d="M203.144 490.68C197.253 490.691 192.469 485.923 192.458 480.032C192.453 477.192 193.581 474.467 195.592 472.461L422.728 245.346L195.592 18.232C191.499 13.995 191.617 7.24203 195.854 3.14903C199.988 -0.842971 206.541 -0.842971 210.674 3.14903L445.341 237.816C449.505 241.981 449.505 248.733 445.341 252.899L210.675 487.565C208.676 489.56 205.968 490.68 203.144 490.68Z" fill="white"/>
<path d="M11.144 490.68C5.25303 490.691 0.469024 485.923 0.458024 480.032C0.453024 477.192 1.58102 474.467 3.59202 472.461L230.728 245.346L3.59202 18.232C-0.578977 14.061 -0.578977 7.29901 3.59202 3.12801C7.76302 -1.04299 14.525 -1.04299 18.696 3.12801L253.363 237.795C257.527 241.96 257.527 248.712 253.363 252.878L18.696 487.544C16.695 489.551 13.978 490.68 11.144 490.68Z" fill="white"/>
</svg>
